<mxfile host="app.diagrams.net" modified="2021-12-18T12:22:54.424Z" agent="5.0 (Windows NT 10.0; Win64; x64) AppleWebKit/537.36 (KHTML, like Gecko) Chrome/96.0.4664.55 Safari/537.36 Edg/96.0.1054.43" etag="fPFa2u5KToVOHPFMlFwV" version="15.9.3" type="github">
  <diagram id="1ZVU6cOuOISngvRTeESr" name="第 1 页">
    <mxGraphModel dx="1066" dy="531" grid="0" gridSize="10" guides="1" tooltips="1" connect="1" arrows="1" fold="1" page="1" pageScale="1" pageWidth="827" pageHeight="1169" math="0" shadow="0">
      <root>
        <mxCell id="0" />
        <mxCell id="1" parent="0" />
        <mxCell id="1FUzb9S9LFsmY7rsUdcl-3" value="" style="rounded=0;orthogonalLoop=1;jettySize=auto;html=1;" edge="1" parent="1" target="1FUzb9S9LFsmY7rsUdcl-2">
          <mxGeometry relative="1" as="geometry">
            <mxPoint x="180" y="180" as="sourcePoint" />
            <Array as="points" />
          </mxGeometry>
        </mxCell>
        <mxCell id="1FUzb9S9LFsmY7rsUdcl-9" style="edgeStyle=none;rounded=0;orthogonalLoop=1;jettySize=auto;html=1;exitX=0.5;exitY=0.5;exitDx=0;exitDy=0;exitPerimeter=0;entryX=0;entryY=0.375;entryDx=0;entryDy=0;entryPerimeter=0;" edge="1" parent="1" source="1FUzb9S9LFsmY7rsUdcl-1" target="1FUzb9S9LFsmY7rsUdcl-6">
          <mxGeometry relative="1" as="geometry" />
        </mxCell>
        <mxCell id="1FUzb9S9LFsmY7rsUdcl-12" style="edgeStyle=none;rounded=0;orthogonalLoop=1;jettySize=auto;html=1;exitX=1;exitY=1;exitDx=0;exitDy=0;exitPerimeter=0;entryX=0;entryY=0.5;entryDx=0;entryDy=0;" edge="1" parent="1" source="1FUzb9S9LFsmY7rsUdcl-1" target="1FUzb9S9LFsmY7rsUdcl-10">
          <mxGeometry relative="1" as="geometry" />
        </mxCell>
        <mxCell id="1FUzb9S9LFsmY7rsUdcl-15" style="edgeStyle=none;rounded=0;orthogonalLoop=1;jettySize=auto;html=1;exitX=1;exitY=1;exitDx=0;exitDy=0;exitPerimeter=0;entryX=0.067;entryY=0.202;entryDx=0;entryDy=0;entryPerimeter=0;" edge="1" parent="1" source="1FUzb9S9LFsmY7rsUdcl-1" target="1FUzb9S9LFsmY7rsUdcl-13">
          <mxGeometry relative="1" as="geometry" />
        </mxCell>
        <mxCell id="1FUzb9S9LFsmY7rsUdcl-1" value="用户" style="shape=umlActor;verticalLabelPosition=bottom;verticalAlign=top;html=1;outlineConnect=0;" vertex="1" parent="1">
          <mxGeometry x="150" y="160" width="30" height="60" as="geometry" />
        </mxCell>
        <mxCell id="1FUzb9S9LFsmY7rsUdcl-2" value="顾客注册，登录" style="ellipse;whiteSpace=wrap;html=1;verticalAlign=middle;" vertex="1" parent="1">
          <mxGeometry x="330" y="80" width="120" height="60" as="geometry" />
        </mxCell>
        <mxCell id="1FUzb9S9LFsmY7rsUdcl-6" value="商品检索，浏览" style="ellipse;whiteSpace=wrap;html=1;" vertex="1" parent="1">
          <mxGeometry x="330" y="170" width="120" height="80" as="geometry" />
        </mxCell>
        <mxCell id="1FUzb9S9LFsmY7rsUdcl-10" value="订单管理" style="ellipse;whiteSpace=wrap;html=1;" vertex="1" parent="1">
          <mxGeometry x="340" y="270" width="120" height="80" as="geometry" />
        </mxCell>
        <mxCell id="1FUzb9S9LFsmY7rsUdcl-13" value="购物车管理" style="ellipse;whiteSpace=wrap;html=1;" vertex="1" parent="1">
          <mxGeometry x="340" y="380" width="120" height="80" as="geometry" />
        </mxCell>
      </root>
    </mxGraphModel>
  </diagram>
</mxfile>
